<mxfile host="app.diagrams.net" modified="2024-01-16T08:07:38.351Z" agent="Mozilla/5.0 (Macintosh; Intel Mac OS X 10_15_7) AppleWebKit/605.1.15 (KHTML, like Gecko) Version/17.2.1 Safari/605.1.15" version="22.1.18" etag="o_X5baJpLhtM1_su1q7U" type="github">
  <diagram name="Seite-1" id="hi-mozhEFsfdNRb4snX-">
    <mxGraphModel>
      <root>
        <mxCell id="0" />
        <mxCell id="1" parent="0" />
      </root>
    </mxGraphModel>
  </diagram>
</mxfile>
